<mxfile host="app.diagrams.net" modified="2021-12-01T08:21:40.360Z" agent="5.0 (Windows NT 10.0; Win64; x64) AppleWebKit/537.36 (KHTML, like Gecko) Chrome/96.0.4664.45 Safari/537.36" etag="FsG648gu2SpoEbQseTYe" version="15.8.8" type="github">
  <diagram id="8IfeXw4iu5hIM_P0nCsx" name="نمودار سطح 1">
    <mxGraphModel dx="942" dy="1751" grid="1" gridSize="10" guides="1" tooltips="1" connect="1" arrows="1" fold="1" page="1" pageScale="1" pageWidth="827" pageHeight="1169" math="0" shadow="0">
      <root>
        <mxCell id="0" />
        <mxCell id="1" parent="0" />
        <mxCell id="9SigzvAa_DoK5RJEVX7P-7" style="edgeStyle=orthogonalEdgeStyle;rounded=0;orthogonalLoop=1;jettySize=auto;html=1;exitX=1;exitY=0.5;exitDx=0;exitDy=0;fontFamily=Verdana;fontSize=18;" edge="1" parent="1">
          <mxGeometry relative="1" as="geometry">
            <mxPoint x="680" y="279.5" as="targetPoint" />
            <mxPoint x="560" y="279.5" as="sourcePoint" />
            <Array as="points">
              <mxPoint x="620" y="280" />
              <mxPoint x="620" y="280" />
            </Array>
          </mxGeometry>
        </mxCell>
        <mxCell id="9SigzvAa_DoK5RJEVX7P-10" style="edgeStyle=orthogonalEdgeStyle;rounded=0;orthogonalLoop=1;jettySize=auto;html=1;exitX=0;exitY=0.5;exitDx=0;exitDy=0;fontFamily=Verdana;fontSize=18;entryX=1;entryY=0.5;entryDx=0;entryDy=0;" edge="1" parent="1">
          <mxGeometry relative="1" as="geometry">
            <mxPoint x="120" y="279" as="targetPoint" />
            <mxPoint x="240" y="279" as="sourcePoint" />
          </mxGeometry>
        </mxCell>
        <mxCell id="9SigzvAa_DoK5RJEVX7P-11" style="edgeStyle=orthogonalEdgeStyle;rounded=0;orthogonalLoop=1;jettySize=auto;html=1;exitX=0.5;exitY=1;exitDx=0;exitDy=0;fontFamily=Verdana;fontSize=18;" edge="1" parent="1" source="9SigzvAa_DoK5RJEVX7P-1" target="9SigzvAa_DoK5RJEVX7P-12">
          <mxGeometry relative="1" as="geometry">
            <mxPoint x="400" y="460" as="targetPoint" />
          </mxGeometry>
        </mxCell>
        <mxCell id="9SigzvAa_DoK5RJEVX7P-1" value="&lt;h1&gt;&lt;font style=&quot;font-size: 28px&quot;&gt;&amp;nbsp;صندوق قرض الحسنه وامیلون&lt;/font&gt;&lt;/h1&gt;" style="ellipse;whiteSpace=wrap;html=1;" vertex="1" parent="1">
          <mxGeometry x="240" y="150" width="320" height="260" as="geometry" />
        </mxCell>
        <mxCell id="9SigzvAa_DoK5RJEVX7P-5" value="" style="endArrow=classic;html=1;rounded=0;fontFamily=Verdana;exitX=0.5;exitY=0;exitDx=0;exitDy=0;" edge="1" parent="1">
          <mxGeometry width="50" height="50" relative="1" as="geometry">
            <mxPoint x="393" y="150" as="sourcePoint" />
            <mxPoint x="393" y="80" as="targetPoint" />
          </mxGeometry>
        </mxCell>
        <mxCell id="9SigzvAa_DoK5RJEVX7P-17" style="edgeStyle=orthogonalEdgeStyle;rounded=0;orthogonalLoop=1;jettySize=auto;html=1;fontFamily=Verdana;fontSize=18;" edge="1" parent="1">
          <mxGeometry relative="1" as="geometry">
            <mxPoint x="408" y="150" as="targetPoint" />
            <mxPoint x="408" y="80" as="sourcePoint" />
          </mxGeometry>
        </mxCell>
        <mxCell id="9SigzvAa_DoK5RJEVX7P-6" value="&lt;h5&gt;&lt;span style=&quot;font-size: 18px&quot;&gt;کاربران&lt;/span&gt;&lt;/h5&gt;" style="rounded=0;whiteSpace=wrap;html=1;fontFamily=Verdana;fontSize=28;" vertex="1" parent="1">
          <mxGeometry x="340" y="20" width="120" height="60" as="geometry" />
        </mxCell>
        <mxCell id="9SigzvAa_DoK5RJEVX7P-22" style="edgeStyle=orthogonalEdgeStyle;rounded=0;orthogonalLoop=1;jettySize=auto;html=1;exitX=0;exitY=0.5;exitDx=0;exitDy=0;entryX=1;entryY=0.5;entryDx=0;entryDy=0;fontFamily=Verdana;fontSize=18;" edge="1" parent="1">
          <mxGeometry relative="1" as="geometry">
            <mxPoint x="680" y="290" as="sourcePoint" />
            <mxPoint x="560" y="290" as="targetPoint" />
          </mxGeometry>
        </mxCell>
        <mxCell id="9SigzvAa_DoK5RJEVX7P-8" value="مدیران" style="rounded=0;whiteSpace=wrap;html=1;fontFamily=Verdana;fontSize=18;" vertex="1" parent="1">
          <mxGeometry x="680" y="250" width="120" height="60" as="geometry" />
        </mxCell>
        <mxCell id="9SigzvAa_DoK5RJEVX7P-26" style="edgeStyle=orthogonalEdgeStyle;rounded=0;orthogonalLoop=1;jettySize=auto;html=1;exitX=1;exitY=0.5;exitDx=0;exitDy=0;fontFamily=Verdana;fontSize=18;" edge="1" parent="1">
          <mxGeometry relative="1" as="geometry">
            <mxPoint x="240" y="289" as="targetPoint" />
            <mxPoint x="120" y="289" as="sourcePoint" />
          </mxGeometry>
        </mxCell>
        <mxCell id="9SigzvAa_DoK5RJEVX7P-9" value="درگاه های آنلاین" style="rounded=0;whiteSpace=wrap;html=1;fontFamily=Verdana;fontSize=18;" vertex="1" parent="1">
          <mxGeometry x="21" y="250" width="120" height="60" as="geometry" />
        </mxCell>
        <mxCell id="9SigzvAa_DoK5RJEVX7P-12" value="بانک&amp;nbsp;" style="rounded=0;whiteSpace=wrap;html=1;fontFamily=Verdana;fontSize=18;" vertex="1" parent="1">
          <mxGeometry x="340" y="480" width="120" height="60" as="geometry" />
        </mxCell>
        <mxCell id="9SigzvAa_DoK5RJEVX7P-41" value="&lt;h6&gt;&lt;font color=&quot;#4d4d4d&quot;&gt;واریز حق اشتراک ماهانه به وامیلون&amp;nbsp;&lt;/font&gt;&lt;/h6&gt;" style="text;html=1;strokeColor=none;fillColor=none;align=center;verticalAlign=middle;whiteSpace=wrap;rounded=0;fontFamily=Verdana;fontSize=18;" vertex="1" parent="1">
          <mxGeometry x="590" y="373" width="110" height="30" as="geometry" />
        </mxCell>
        <mxCell id="9SigzvAa_DoK5RJEVX7P-45" value="" style="endArrow=classic;html=1;rounded=0;fontFamily=Verdana;fontSize=18;fontColor=#4D4D4D;" edge="1" parent="1">
          <mxGeometry width="50" height="50" relative="1" as="geometry">
            <mxPoint x="620" y="290" as="sourcePoint" />
            <mxPoint x="640" y="370" as="targetPoint" />
          </mxGeometry>
        </mxCell>
        <mxCell id="9SigzvAa_DoK5RJEVX7P-46" value="" style="endArrow=classic;html=1;rounded=0;fontFamily=Verdana;fontSize=18;fontColor=#4D4D4D;" edge="1" parent="1" target="9SigzvAa_DoK5RJEVX7P-47">
          <mxGeometry width="50" height="50" relative="1" as="geometry">
            <mxPoint x="180" y="290" as="sourcePoint" />
            <mxPoint x="150" y="420" as="targetPoint" />
          </mxGeometry>
        </mxCell>
        <mxCell id="9SigzvAa_DoK5RJEVX7P-47" value="&lt;h5&gt;پیگیری پرداخت ها و گزارش آن به وامیلون&lt;/h5&gt;" style="text;html=1;strokeColor=none;fillColor=none;align=center;verticalAlign=middle;whiteSpace=wrap;rounded=0;fontFamily=Verdana;fontSize=18;fontColor=#4D4D4D;" vertex="1" parent="1">
          <mxGeometry x="40" y="405" width="140" height="30" as="geometry" />
        </mxCell>
        <mxCell id="9SigzvAa_DoK5RJEVX7P-49" value="" style="endArrow=classic;html=1;rounded=0;fontFamily=Verdana;fontSize=18;fontColor=#4D4D4D;" edge="1" parent="1" target="9SigzvAa_DoK5RJEVX7P-50">
          <mxGeometry width="50" height="50" relative="1" as="geometry">
            <mxPoint x="180" y="280" as="sourcePoint" />
            <mxPoint x="120" y="160" as="targetPoint" />
          </mxGeometry>
        </mxCell>
        <mxCell id="9SigzvAa_DoK5RJEVX7P-50" value="&lt;h5&gt;ارسال فاکتور ها برای پرداخت&amp;nbsp;&lt;/h5&gt;" style="text;html=1;strokeColor=none;fillColor=none;align=center;verticalAlign=middle;whiteSpace=wrap;rounded=0;fontFamily=Verdana;fontSize=18;fontColor=#4D4D4D;" vertex="1" parent="1">
          <mxGeometry x="10" y="120" width="170" height="55" as="geometry" />
        </mxCell>
        <mxCell id="9SigzvAa_DoK5RJEVX7P-51" value="" style="endArrow=classic;html=1;rounded=0;fontFamily=Verdana;fontSize=18;fontColor=#4D4D4D;" edge="1" parent="1" target="9SigzvAa_DoK5RJEVX7P-52">
          <mxGeometry width="50" height="50" relative="1" as="geometry">
            <mxPoint x="410" y="120" as="sourcePoint" />
            <mxPoint x="560" y="120" as="targetPoint" />
          </mxGeometry>
        </mxCell>
        <mxCell id="9SigzvAa_DoK5RJEVX7P-52" value="&lt;h5&gt;عضویت در صندوق و درخواست وام&lt;/h5&gt;" style="text;html=1;strokeColor=none;fillColor=none;align=center;verticalAlign=middle;whiteSpace=wrap;rounded=0;fontFamily=Verdana;fontSize=18;fontColor=#4D4D4D;" vertex="1" parent="1">
          <mxGeometry x="530" y="105" width="190" height="30" as="geometry" />
        </mxCell>
        <mxCell id="9SigzvAa_DoK5RJEVX7P-54" value="" style="endArrow=classic;html=1;rounded=0;fontFamily=Verdana;fontSize=18;fontColor=#4D4D4D;" edge="1" parent="1" target="9SigzvAa_DoK5RJEVX7P-55">
          <mxGeometry width="50" height="50" relative="1" as="geometry">
            <mxPoint x="390" y="120" as="sourcePoint" />
            <mxPoint x="280" y="120" as="targetPoint" />
          </mxGeometry>
        </mxCell>
        <mxCell id="9SigzvAa_DoK5RJEVX7P-55" value="&lt;h5&gt;ارسال پیامک از کار های انجام شده در صندوق&amp;nbsp;&lt;/h5&gt;" style="text;html=1;strokeColor=none;fillColor=none;align=center;verticalAlign=middle;whiteSpace=wrap;rounded=0;fontFamily=Verdana;fontSize=18;fontColor=#4D4D4D;" vertex="1" parent="1">
          <mxGeometry x="150" y="60" width="150" height="55" as="geometry" />
        </mxCell>
        <mxCell id="9SigzvAa_DoK5RJEVX7P-56" value="&lt;h5&gt;پیگیری اطلاعات حساب و انتقال و برداشت از حساب بانکی&lt;/h5&gt;" style="text;html=1;strokeColor=none;fillColor=none;align=center;verticalAlign=middle;whiteSpace=wrap;rounded=0;fontFamily=Verdana;fontSize=18;fontColor=#4D4D4D;" vertex="1" parent="1">
          <mxGeometry x="540" y="435" width="260" height="30" as="geometry" />
        </mxCell>
        <mxCell id="9SigzvAa_DoK5RJEVX7P-57" value="" style="endArrow=classic;html=1;rounded=0;fontFamily=Verdana;fontSize=18;fontColor=#4D4D4D;" edge="1" parent="1">
          <mxGeometry width="50" height="50" relative="1" as="geometry">
            <mxPoint x="400" y="450" as="sourcePoint" />
            <mxPoint x="540" y="450" as="targetPoint" />
          </mxGeometry>
        </mxCell>
      </root>
    </mxGraphModel>
  </diagram>
</mxfile>
